<?xml version="1.0" encoding="utf-8"?>
<!-- Generator: Adobe Illustrator 28.1.0, SVG Export Plug-In . SVG Version: 6.00 Build 0)  -->
<svg version="1.1" id="Layer_1" xmlns="http://www.w3.org/2000/svg" xmlns:xlink="http://www.w3.org/1999/xlink" x="0px" y="0px"
	 width="16px" height="10px" viewBox="0 0 16 10" style="enable-background:new 0 0 16 10;" xml:space="preserve">
<style type="text/css">
	.Drop_x0020_Shadow{fill:none;}
	.Thick_x0020_Blue_x0020_Neon{fill:none;stroke:#0073BC;stroke-width:10;stroke-linecap:round;stroke-linejoin:round;}
	.Illuminating_x0020_Aqua{fill:url(#SVGID_1_);stroke:#FFFFFF;stroke-width:0.25;stroke-miterlimit:1;}
	
		.Black_x0020_Highlight{fill:url(#SVGID_00000098904265320480118020000006716327509175985281_);stroke:#FFFFFF;stroke-width:0.362861;stroke-miterlimit:1;}
	.Bugaboo_GS{fill-rule:evenodd;clip-rule:evenodd;fill:#FFDD00;}
	.st0{fill:#FF8787;}
	.st1{fill:#495057;}
	.st2{fill:#69DB7C;}
	.st3{fill:none;stroke:#F8F9FA;stroke-miterlimit:10;}
	.st4{fill:#F8F9FA;stroke:#F8F9FA;stroke-miterlimit:10;}
</style>
<linearGradient id="SVGID_1_" gradientUnits="userSpaceOnUse" x1="0" y1="0" x2="6.123234e-17" y2="-1">
	<stop  offset="0" style="stop-color:#1D59F4"/>
	<stop  offset="0.617977" style="stop-color:#2D65EE"/>
	<stop  offset="0.629213" style="stop-color:#3864F3"/>
	<stop  offset="0.983146" style="stop-color:#00DDFC"/>
</linearGradient>
<linearGradient id="SVGID_00000163050395961747557190000001873590298590860723_" gradientUnits="userSpaceOnUse" x1="0" y1="0" x2="6.123234e-17" y2="-1">
	<stop  offset="0" style="stop-color:#060606"/>
	<stop  offset="0.617977" style="stop-color:#000000"/>
	<stop  offset="0.629213" style="stop-color:#000000"/>
	<stop  offset="0.983146" style="stop-color:#000000"/>
</linearGradient>
<path class="st0" d="M15.0096836,9.9992552H1.009676c-0.5522804,0-0.9999962-0.4477158-0.9999962-0.9999962V0.9992516
	c0-0.5522804,0.4477158-0.9999962,0.9999962-0.9999962h14.0000076c0.5522804,0,0.9999962,0.4477158,0.9999962,0.9999962V8.999259
	C16.0096798,9.5515394,15.561964,9.9992552,15.0096836,9.9992552z"/>
<path class="st1" d="M5.3430119,9.9992552H1.0096798c-0.5522842,0-1-0.4477158-1-1v-8c0-0.5522842,0.4477158-1,1-1h4.3333321
	V9.9992552z"/>
<path class="st2" d="M15.0096798,9.9992552h-4.3333321v-10h4.3333321c0.5522842,0,1,0.4477158,1,1v8
	C16.0096798,9.5515394,15.561964,9.9992552,15.0096798,9.9992552z"/>
<circle class="st3" cx="8" cy="5" r="3"/>
<circle class="st4" cx="8" cy="5" r="1"/>
</svg>
