<?xml version="1.0" encoding="utf-8"?>
<!-- Generator: Adobe Illustrator 28.1.0, SVG Export Plug-In . SVG Version: 6.00 Build 0)  -->
<svg version="1.1" id="Layer_1" xmlns="http://www.w3.org/2000/svg" xmlns:xlink="http://www.w3.org/1999/xlink" x="0px" y="0px"
	 width="16px" height="10px" viewBox="0 0 16 10" style="enable-background:new 0 0 16 10;" xml:space="preserve">
<style type="text/css">
	.Drop_x0020_Shadow{fill:none;}
	.Thick_x0020_Blue_x0020_Neon{fill:none;stroke:#0073BC;stroke-width:10;stroke-linecap:round;stroke-linejoin:round;}
	.Illuminating_x0020_Aqua{fill:url(#SVGID_1_);stroke:#FFFFFF;stroke-width:0.25;stroke-miterlimit:1;}
	
		.Black_x0020_Highlight{fill:url(#SVGID_00000049220435000678155290000013469000376873616815_);stroke:#FFFFFF;stroke-width:0.362861;stroke-miterlimit:1;}
	.Bugaboo_GS{fill-rule:evenodd;clip-rule:evenodd;fill:#FFDD00;}
	.st0{fill:#4DABF7;}
	.st1{fill:#495057;}
	.st2{fill:#F8F9FA;}
	.st3{fill:#FF8787;}
	.st4{fill:#FFD43B;}
</style>
<linearGradient id="SVGID_1_" gradientUnits="userSpaceOnUse" x1="0" y1="0" x2="6.123234e-17" y2="-1">
	<stop  offset="0" style="stop-color:#1D59F4"/>
	<stop  offset="0.617977" style="stop-color:#2D65EE"/>
	<stop  offset="0.629213" style="stop-color:#3864F3"/>
	<stop  offset="0.983146" style="stop-color:#00DDFC"/>
</linearGradient>
<linearGradient id="SVGID_00000079445649594039545400000004804612098180723116_" gradientUnits="userSpaceOnUse" x1="0" y1="0" x2="6.123234e-17" y2="-1">
	<stop  offset="0" style="stop-color:#060606"/>
	<stop  offset="0.617977" style="stop-color:#000000"/>
	<stop  offset="0.629213" style="stop-color:#000000"/>
	<stop  offset="0.983146" style="stop-color:#000000"/>
</linearGradient>
<path class="st0" d="M15.0000038,10H0.9999962C0.4477158,10,0,9.5522861,0,9.0000019V0.9999981C0,0.4477139,0.4477158,0,0.9999962,0
	h14.0000076C15.5522842,0,16,0.4477139,16,0.9999981v8.0000038C16,9.5522861,15.5522842,10,15.0000038,10z"/>
<path class="st1" d="M16,3.333334H0V1c0-0.5522842,0.4477158-1,1-1h14c0.5522842,0,1,0.4477158,1,1V3.333334z"/>
<path class="st2" d="M15,10H1c-0.5522842,0-1-0.4477158-1-1V6.666666h16V9C16,9.5522842,15.5522842,10,15,10z"/>
<g>
	<path class="st3" d="M0,1v8c0,0.5522461,0.4476929,1,1,1h7L0.2661133,0.3326416C0.1047363,0.5102539,0,0.7410889,0,1z"/>
	<path class="st3" d="M8,10h7c0.5523071,0,1-0.4477539,1-1V1c0-0.2589111-0.1047363-0.4897461-0.2661133-0.6673584L8,10z"/>
</g>
<path class="st4" d="M10.9197388,3.333313C10.6157837,1.9984131,9.4269409,1,8,1S5.3842163,1.9984131,5.0802612,3.333313H10.9197388
	z"/>
</svg>
