<?xml version="1.0" encoding="utf-8"?>
<!-- Generator: Adobe Illustrator 28.1.0, SVG Export Plug-In . SVG Version: 6.00 Build 0)  -->
<svg version="1.1" id="Layer_1" xmlns="http://www.w3.org/2000/svg" xmlns:xlink="http://www.w3.org/1999/xlink" x="0px" y="0px"
	 width="16px" height="10px" viewBox="0 0 16 10" style="enable-background:new 0 0 16 10;" xml:space="preserve">
<style type="text/css">
	.st0{fill:#4DABF7;}
	.st1{fill:#F8F9FA;}
	.st2{fill:#FF8787;}
	.st3{fill:#F8F9FA;stroke:#4DABF7;stroke-miterlimit:10;}
</style>
<path class="st0" d="M15.0000038,10H0.9999962C0.4477158,10,0,9.5522861,0,9.0000019V0.9999981C0,0.4477139,0.4477158,0,0.9999962,0
	h14.0000076C15.5522842,0,16,0.4477139,16,0.9999981v8.0000038C16,9.5522861,15.5522842,10,15.0000038,10z"/>
<path class="st1" d="M0.5,5h0.8253784L4,3.3770752L6.6746826,5H7.5C7.7761841,5,8,4.776123,8,4.5V4.0499268L5.4455566,2.5
	L8,0.9500122V0.5C8,0.2238159,7.7761841,0,7.5,0H6.6746826L4,1.6228638L1.3253784,0H1
	C0.463501,0,0.0335693,0.4249878,0.0089722,0.9554443L2.5545044,2.5L0,4.0499268V4.5C0,4.776123,0.2238159,5,0.5,5z"/>
<path class="st2" d="M0.0615234,0.6951904L7.1566162,5H7.5C7.7761841,5,8,4.776123,8,4.5V4.342041L0.8825073,0.0236816
	C0.4929199,0.0714722,0.1796875,0.3320923,0.0615234,0.6951904z"/>
<path class="st2" d="M7.1565857,0H7.5C7.7761536,0,8,0.2238464,8,0.5v0.1579285L0.8434143,5H0.5C0.2238464,5,0,4.776123,0,4.5
	V4.3420715L7.1565857,0z"/>
<polygon class="st1" points="0,1.75 3.25,1.75 3.25,0 4.75,0 4.75,1.75 8,1.75 8,3.25 4.75,3.25 4.75,5 3.25,5 3.25,3.25 0,3.25 "/>
<polygon class="st2" points="0,2 3.5,2 3.5,0 4.5,0 4.5,2 8,2 8,3 4.5,3 4.5,5 3.5,5 3.5,3 0,3 "/>
<circle class="st1" cx="4" cy="8" r="1"/>
<circle class="st3" cx="12" cy="2" r="1"/>
<circle class="st3" cx="14" cy="3.5" r="1"/>
<circle class="st3" cx="10" cy="4" r="1"/>
<g>
	<circle class="st1" cx="13" cy="5" r="0.75"/>
	<path class="st0" d="M13,4.5c0.2756996,0,0.5,0.2242999,0.5,0.5S13.2756996,5.5,13,5.5S12.5,5.2757001,12.5,5
		S12.7243004,4.5,13,4.5 M13,4c-0.55229,0-1,0.4477201-1,1s0.44771,1,1,1s1-0.4477201,1-1S13.55229,4,13,4L13,4z"/>
</g>
<circle class="st3" cx="12" cy="8" r="1"/>
</svg>
