<?xml version="1.0" encoding="utf-8"?>
<!-- Generator: Adobe Illustrator 28.1.0, SVG Export Plug-In . SVG Version: 6.00 Build 0)  -->
<svg version="1.1" id="Layer_1" xmlns="http://www.w3.org/2000/svg" xmlns:xlink="http://www.w3.org/1999/xlink" x="0px" y="0px"
	 width="256px" height="256px" viewBox="0 0 256 256" style="enable-background:new 0 0 256 256;" xml:space="preserve">
<style type="text/css">
	.Drop_x0020_Shadow{fill:none;}
	.Thick_x0020_Blue_x0020_Neon{fill:none;stroke:#0073BC;stroke-width:10;stroke-linecap:round;stroke-linejoin:round;}
	.Illuminating_x0020_Aqua{fill:url(#SVGID_1_);stroke:#FFFFFF;stroke-width:0.25;stroke-miterlimit:1;}
	
		.Black_x0020_Highlight{fill:url(#SVGID_00000071531927786273495800000003200682428551378345_);stroke:#FFFFFF;stroke-width:0.362861;stroke-miterlimit:1;}
	.Bugaboo_GS{fill-rule:evenodd;clip-rule:evenodd;fill:#FFDD00;}
	.st0{fill:#4DABF7;}
	.st1{fill:#FF8787;}
	.st2{fill:#FFD43B;}
	.st3{fill:#69DB7C;}
	.st4{fill:#DA77F2;}
	.st5{fill:#FFA94D;}
	.st6{fill:#A9E34B;}
	.st7{fill:#3BC9DB;}
	.st8{fill:#F8F9FA;}
	.st9{fill:url(#SVGID_00000170240210481160851820000013944029763867922873_);}
	.st10{fill:url(#SVGID_00000133501982631989610990000010537515007776739203_);}
</style>
<linearGradient id="SVGID_1_" gradientUnits="userSpaceOnUse" x1="0" y1="0" x2="6.123234e-17" y2="-1">
	<stop  offset="0" style="stop-color:#1D59F4"/>
	<stop  offset="0.617977" style="stop-color:#2D65EE"/>
	<stop  offset="0.629213" style="stop-color:#3864F3"/>
	<stop  offset="0.983146" style="stop-color:#00DDFC"/>
</linearGradient>
<linearGradient id="SVGID_00000160171774740908980820000005506908161281663119_" gradientUnits="userSpaceOnUse" x1="0" y1="0" x2="6.123234e-17" y2="-1">
	<stop  offset="0" style="stop-color:#060606"/>
	<stop  offset="0.617977" style="stop-color:#000000"/>
	<stop  offset="0.629213" style="stop-color:#000000"/>
	<stop  offset="0.983146" style="stop-color:#000000"/>
</linearGradient>
<circle class="st0" cx="23" cy="136" r="6"/>
<path class="st0" d="M31.0000019,29H16.9999981C16.4477139,29,16,28.5522861,16,28.0000019v-8.0000038
	C16,19.4477139,16.4477139,19,16.9999981,19h14.0000038C31.5522861,19,32,19.4477139,32,19.9999981v8.0000038
	C32,28.5522861,31.5522861,29,31.0000019,29z"/>
<path class="st0" d="M31.0000019,45H16.9999981C16.4477139,45,16,44.5522842,16,44.0000038v-8.0000076
	C16,35.4477158,16.4477139,35,16.9999981,35h14.0000038C31.5522861,35,32,35.4477158,32,35.9999962v8.0000076
	C32,44.5522842,31.5522861,45,31.0000019,45z"/>
<path class="st0" d="M31.0000019,61H16.9999981C16.4477139,61,16,60.5522842,16,60.0000038v-8.0000076
	C16,51.4477158,16.4477139,51,16.9999981,51h14.0000038C31.5522861,51,32,51.4477158,32,51.9999962v8.0000076
	C32,60.5522842,31.5522861,61,31.0000019,61z"/>
<path class="st1" d="M32,24H16v-4c0-0.5522842,0.4477158-1,1-1h14c0.5522842,0,1,0.4477158,1,1V24z"/>
<path class="st1" d="M24,45h-7c-0.5522842,0-1-0.4477158-1-1v-8c0-0.5522842,0.4477158-1,1-1h7V45z"/>
<path class="st0" d="M223,45h-14c-0.5522919,0-1-0.4477158-1-0.9999962v-8.0000076C208,35.4477158,208.4477081,35,209,35h14
	c0.5522919,0,1,0.4477158,1,0.9999962v8.0000076C224,44.5522842,223.5522919,45,223,45z"/>
<path class="st1" d="M210,45h-1c-0.5522919,0-1-0.4477158-1-1v-8c0-0.5522842,0.4477081-1,1-1h1V45z"/>
<path class="st0" d="M63.0000038,45H48.9999962C48.4477158,45,48,44.5522842,48,44.0000038v-8.0000076
	C48,35.4477158,48.4477158,35,48.9999962,35h14.0000076C63.5522842,35,64,35.4477158,64,35.9999962v8.0000076
	C64,44.5522842,63.5522842,45,63.0000038,45z"/>
<path class="st1" d="M53.3333321,45H49c-0.5522842,0-1-0.4477158-1-1v-8c0-0.5522842,0.4477158-1,1-1h4.3333321V45z"/>
<path class="st2" d="M63,45h-4.3333321V35H63c0.5522842,0,1,0.4477158,1,1v8C64,44.5522842,63.5522842,45,63,45z"/>
<path class="st0" d="M63.0000038,29H48.9999962C48.4477158,29,48,28.5522861,48,28.0000019v-8.0000038
	C48,19.4477139,48.4477158,19,48.9999962,19h14.0000076C63.5522842,19,64,19.4477139,64,19.9999981v8.0000038
	C64,28.5522861,63.5522842,29,63.0000038,29z"/>
<path class="st1" d="M64,22.333334H48V20c0-0.5522842,0.4477158-1,1-1h14c0.5522842,0,1,0.4477158,1,1V22.333334z"/>
<path class="st2" d="M63,29H49c-0.5522842,0-1-0.4477158-1-1v-2.333334h16V28C64,28.5522842,63.5522842,29,63,29z"/>
<path class="st0" d="M95,29H81c-0.5522842,0-1-0.4477139-1-0.9999981v-8.0000038C80,19.4477139,80.4477158,19,81,19h14
	c0.5522842,0,1,0.4477139,1,0.9999981v8.0000038C96,28.5522861,95.5522842,29,95,29z"/>
<path class="st1" d="M96,21.5H80V20c0-0.5522842,0.4477158-1,1-1h14c0.5522842,0,1,0.4477158,1,1V21.5z"/>
<rect x="80" y="24" class="st2" width="16" height="2.5"/>
<path class="st3" d="M96,26.5H80V28c0,0.5522842,0.4477158,1,1,1h14c0.5522842,0,1-0.4477158,1-1V26.5z"/>
<path class="st0" d="M127,29h-14c-0.5522842,0-1-0.4477139-1-0.9999981v-8.0000038C112,19.4477139,112.4477158,19,113,19h14
	c0.5522842,0,1,0.4477139,1,0.9999981v8.0000038C128,28.5522861,127.5522842,29,127,29z"/>
<path class="st1" d="M128,21h-16v-1c0-0.5522842,0.4477158-1,1-1h14c0.5522842,0,1,0.4477158,1,1V21z"/>
<rect x="112" y="23" class="st2" width="16" height="2"/>
<rect x="112" y="25" class="st3" width="16" height="2"/>
<path class="st4" d="M128,27h-16v1c0,0.5522842,0.4477158,1,1,1h14c0.5522842,0,1-0.4477158,1-1V27z"/>
<path class="st0" d="M191,29h-14c-0.5522919,0-1-0.4477139-1-0.9999981v-8.0000038C176,19.4477139,176.4477081,19,177,19h14
	c0.5522919,0,1,0.4477139,1,0.9999981v8.0000038C192,28.5522861,191.5522919,29,191,29z"/>
<path class="st1" d="M192,20.4285717h-16v-0.4285736C176,19.4477139,176.4477081,19,177,19h14c0.5522919,0,1,0.4477139,1,0.9999981
	V20.4285717z"/>
<rect x="176" y="21.8571434" class="st2" width="16" height="1.4285715"/>
<rect x="176" y="23.2857151" class="st3" width="16" height="1.4285715"/>
<rect x="176" y="24.7142849" class="st4" width="16" height="1.4285715"/>
<path class="st0" d="M223,29h-14c-0.5522919,0-1-0.4477139-1-0.9999981v-8.0000038C208,19.4477139,208.4477081,19,209,19h14
	c0.5522919,0,1,0.4477139,1,0.9999981v8.0000038C224,28.5522861,223.5522919,29,223,29z"/>
<path class="st1" d="M224,20.25h-16V20c0-0.5522842,0.4477081-1,1-1h14c0.5522919,0,1,0.4477158,1,1V20.25z"/>
<rect x="208" y="21.5" class="st2" width="16" height="1.25"/>
<rect x="208" y="22.75" class="st3" width="16" height="1.25"/>
<rect x="208" y="24" class="st4" width="16" height="1.25"/>
<path class="st0" d="M159,29h-14c-0.5522919,0-1-0.4477139-1-0.9999981v-8.0000038C144,19.4477139,144.4477081,19,145,19h14
	c0.5522919,0,1,0.4477139,1,0.9999981v8.0000038C160,28.5522861,159.5522919,29,159,29z"/>
<path class="st1" d="M160,20.666666h-16V20c0-0.5522842,0.4477081-1,1-1h14c0.5522919,0,1,0.4477158,1,1V20.666666z"/>
<rect x="144" y="22.333334" class="st2" width="16" height="1.6666666"/>
<rect x="144" y="24" class="st3" width="16" height="1.6666666"/>
<rect x="144" y="25.666666" class="st4" width="16" height="1.6666666"/>
<path class="st5" d="M160,27.333334h-16V28c0,0.5522842,0.4477081,1,1,1h14c0.5522919,0,1-0.4477158,1-1V27.333334z"/>
<rect x="176" y="26.1428566" class="st5" width="16" height="1.4285715"/>
<rect x="208" y="25.25" class="st5" width="16" height="1.25"/>
<rect x="208" y="26.5" class="st6" width="16" height="1.25"/>
<path class="st6" d="M176,27.5714283h16v0.4285736C192,28.5522861,191.5522919,29,191,29h-14c-0.5522919,0-1-0.4477139-1-0.9999981
	V27.5714283z"/>
<path class="st7" d="M224,27.75h-16V28c0,0.5522842,0.4477081,1,1,1h14c0.5522919,0,1-0.4477158,1-1V27.75z"/>
<rect x="212" y="35" class="st2" width="2" height="10"/>
<rect x="214" y="35" class="st3" width="2" height="10"/>
<path class="st0" d="M95,45H81c-0.5522842,0-1-0.4477158-1-0.9999962v-8.0000076C80,35.4477158,80.4477158,35,81,35h14
	c0.5522842,0,1,0.4477158,1,0.9999962v8.0000076C96,44.5522842,95.5522842,45,95,45z"/>
<path class="st1" d="M84,45h-3c-0.5522842,0-1-0.4477158-1-1v-8c0-0.5522842,0.4477158-1,1-1h3V45z"/>
<rect x="88" y="35" class="st2" width="4" height="10"/>
<path class="st3" d="M92,45h3c0.5522842,0,1-0.4477158,1-0.9999962v-8.0000076C96,35.4477158,95.5522842,35,95,35h-3V45z"/>
<rect x="216" y="35" class="st4" width="2" height="10"/>
<path class="st0" d="M127,45h-14c-0.5522842,0-1-0.4477158-1-0.9999962v-8.0000076C112,35.4477158,112.4477158,35,113,35h14
	c0.5522842,0,1,0.4477158,1,0.9999962v8.0000076C128,44.5522842,127.5522842,45,127,45z"/>
<path class="st1" d="M115.1999969,45H113c-0.5522842,0-1-0.4477158-1-1v-8c0-0.5522842,0.4477158-1,1-1h2.1999969V45z"/>
<rect x="118.4000015" y="35" class="st2" width="3.2" height="10"/>
<rect x="121.5999985" y="35" class="st3" width="3.2" height="10"/>
<path class="st4" d="M124.8000031,45H127c0.5522842,0,1-0.4477158,1-0.9999962v-8.0000076C128,35.4477158,127.5522842,35,127,35
	h-2.1999969V45z"/>
<rect x="218" y="35" class="st5" width="2" height="10"/>
<path class="st0" d="M159,45h-14c-0.5522919,0-1-0.4477158-1-0.9999962v-8.0000076C144,35.4477158,144.4477081,35,145,35h14
	c0.5522919,0,1,0.4477158,1,0.9999962v8.0000076C160,44.5522842,159.5522919,45,159,45z"/>
<path class="st1" d="M146.6666718,45H145c-0.5522919,0-1-0.4477158-1-1v-8c0-0.5522842,0.4477081-1,1-1h1.6666718V45z"/>
<rect x="149.3333282" y="35" class="st2" width="2.6666667" height="10"/>
<rect x="152" y="35" class="st3" width="2.6666667" height="10"/>
<rect x="154.6666718" y="35" class="st4" width="2.6666667" height="10"/>
<path class="st5" d="M157.3333282,45H159c0.5522919,0,1-0.4477158,1-0.9999962v-8.0000076C160,35.4477158,159.5522919,35,159,35
	h-1.6666718V45z"/>
<rect x="220" y="35" class="st6" width="2" height="10"/>
<path class="st0" d="M191,45h-14c-0.5522919,0-1-0.4477158-1-0.9999962v-8.0000076C176,35.4477158,176.4477081,35,177,35h14
	c0.5522919,0,1,0.4477158,1,0.9999962v8.0000076C192,44.5522842,191.5522919,45,191,45z"/>
<path class="st1" d="M178.2857208,45H177c-0.5522919,0-1-0.4477158-1-1v-8c0-0.5522842,0.4477081-1,1-1h1.2857208V45z"/>
<rect x="180.5714264" y="35" class="st2" width="2.2857144" height="10"/>
<rect x="182.8571472" y="35" class="st3" width="2.2857144" height="10"/>
<rect x="185.1428528" y="35" class="st4" width="2.2857144" height="10"/>
<rect x="187.4285736" y="35" class="st5" width="2.2857144" height="10"/>
<path class="st6" d="M189.7142792,45H191c0.5522919,0,1-0.4477158,1-0.9999962v-8.0000076C192,35.4477158,191.5522919,35,191,35
	h-1.2857208V45z"/>
<path class="st7" d="M222,45h1c0.5522919,0,1-0.4477158,1-0.9999962v-8.0000076C224,35.4477158,223.5522919,35,223,35h-1V45z"/>
<path class="st2" d="M23,56h-7v-4c0-0.5522842,0.4477158-1,1-1h7v4C24,55.5522842,23.5522842,56,23,56z"/>
<path class="st0" d="M31.0000019,77H16.9999981C16.4477139,77,16,76.5522842,16,76v-8c0-0.5522842,0.4477139-1,0.9999981-1
	h14.0000038C31.5522861,67,32,67.4477158,32,68v8C32,76.5522842,31.5522861,77,31.0000019,77z"/>
<path class="st2" d="M21,72h-5v-4c0-0.5522842,0.4477158-1,1-1h5v4C22,71.5522842,21.5522842,72,21,72z"/>
<path class="st3" d="M63.0000038,141H48.9999962C48.4477158,141,48,140.5522919,48,140v-8c0-0.5522919,0.4477158-1,0.9999962-1
	h14.0000076C63.5522842,131,64,131.4477081,64,132v8C64,140.5522919,63.5522842,141,63.0000038,141z"/>
<path class="st8" d="M53,136h-5v-4c0-0.5522919,0.4477158-1,1-1h5v4C54,135.5522919,53.5522842,136,53,136z"/>
<path class="st0" d="M31.0000019,93H16.9999981C16.4477139,93,16,92.5522842,16,92v-8c0-0.5522842,0.4477139-1,0.9999981-1
	h14.0000038C31.5522861,83,32,83.4477158,32,84v8C32,92.5522842,31.5522861,93,31.0000019,93z"/>
<path class="st0" d="M63.0000038,77H48.9999962C48.4477158,77,48,76.5522842,48,76v-8c0-0.5522842,0.4477158-1,0.9999962-1
	h14.0000076C63.5522842,67,64,67.4477158,64,68v8C64,76.5522842,63.5522842,77,63.0000038,77z"/>
<path class="st2" d="M63,77h-5v-4c0-0.5522842,0.4477158-1,1-1h5v4C64,76.5522842,63.5522842,77,63,77z"/>
<path class="st0" d="M63.0000038,61H48.9999962C48.4477158,61,48,60.5522842,48,60.0000038v-8.0000076
	C48,51.4477158,48.4477158,51,48.9999962,51h14.0000076C63.5522842,51,64,51.4477158,64,51.9999962v8.0000076
	C64,60.5522842,63.5522842,61,63.0000038,61z"/>
<path class="st2" d="M64,56h-7c-0.5522842,0-1-0.4477158-1-1v-4h7c0.5522842,0,1,0.4477158,1,1V56z"/>
<path class="st0" d="M95,61H81c-0.5522842,0-1-0.4477158-1-0.9999962v-8.0000076C80,51.4477158,80.4477158,51,81,51h14
	c0.5522842,0,1,0.4477158,1,0.9999962v8.0000076C96,60.5522842,95.5522842,61,95,61z"/>
<path class="st2" d="M95,61h-7v-4c0-0.5522842,0.4477158-1,1-1h7v4C96,60.5522842,95.5522842,61,95,61z"/>
<path class="st0" d="M159,61h-14c-0.5522919,0-1-0.4477158-1-0.9999962v-8.0000076C144,51.4477158,144.4477081,51,145,51h14
	c0.5522919,0,1,0.4477158,1,0.9999962v8.0000076C160,60.5522842,159.5522919,61,159,61z"/>
<path class="st2" d="M152,56h-8v-4c0-0.5522842,0.4477081-1,1-1h7V56z"/>
<path class="st2" d="M159,61h-7v-5h8v4C160,60.5522842,159.5522919,61,159,61z"/>
<path class="st0" d="M191,61h-14c-0.5522919,0-1-0.4477158-1-0.9999962v-8.0000076C176,51.4477158,176.4477081,51,177,51h14
	c0.5522919,0,1,0.4477158,1,0.9999962v8.0000076C192,60.5522842,191.5522919,61,191,61z"/>
<path class="st0" d="M127,61h-14c-0.5522842,0-1-0.4477158-1-0.9999962v-8.0000076C112,51.4477158,112.4477158,51,113,51h14
	c0.5522842,0,1,0.4477158,1,0.9999962v8.0000076C128,60.5522842,127.5522842,61,127,61z"/>
<path class="st2" d="M120,61h-7c-0.5522842,0-1-0.4477158-1-1v-4h7c0.5522842,0,1,0.4477158,1,1V61z"/>
<path class="st0" d="M95,77H81c-0.5522842,0-1-0.4477158-1-1v-8c0-0.5522842,0.4477158-1,1-1h14c0.5522842,0,1,0.4477158,1,1v8
	C96,76.5522842,95.5522842,77,95,77z"/>
<path class="st2" d="M86,77h-5c-0.5522842,0-1-0.4477158-1-1v-4h5c0.5522842,0,1,0.4477158,1,1V77z"/>
<path class="st0" d="M127,77h-14c-0.5522842,0-1-0.4477158-1-1v-8c0-0.5522842,0.4477158-1,1-1h14c0.5522842,0,1,0.4477158,1,1v8
	C128,76.5522842,127.5522842,77,127,77z"/>
<path class="st2" d="M128,72h-5c-0.5522842,0-1-0.4477158-1-1v-4h5c0.5522842,0,1,0.4477158,1,1V72z"/>
<path class="st0" d="M159,77h-14c-0.5522919,0-1-0.4477158-1-1v-8c0-0.5522842,0.4477081-1,1-1h14c0.5522919,0,1,0.4477158,1,1v8
	C160,76.5522842,159.5522919,77,159,77z"/>
<path class="st0" d="M191,77h-14c-0.5522919,0-1-0.4477158-1-1v-8c0-0.5522842,0.4477081-1,1-1h14c0.5522919,0,1,0.4477158,1,1v8
	C192,76.5522842,191.5522919,77,191,77z"/>
<path class="st2" d="M31,83H17c-0.2394409,0-0.4504395,0.0955811-0.6225586,0.2359009l15.2451172,9.5281982
	C31.8475342,92.5807495,32,92.3128662,32,92v-8C32,83.4476929,31.5523071,83,31,83z"/>
<path class="st0" d="M48.9999962,93h14.0000076C63.5522842,93,64,92.5522842,64,92v-8c0-0.5522842-0.4477158-1-0.9999962-1
	H48.9999962C48.4477158,83,48,83.4477158,48,84v8C48,92.5522842,48.4477158,93,48.9999962,93z"/>
<path class="st2" d="M49,83h14c0.2394409,0,0.4504395,0.0955811,0.6225586,0.2359009l-15.2451172,9.5281982
	C48.1524658,92.5807495,48,92.3128662,48,92v-8C48,83.4476929,48.4476929,83,49,83z"/>
<path class="st0" d="M81,93h14c0.5522842,0,1-0.4477158,1-1v-8c0-0.5522842-0.4477158-1-1-1H81c-0.5522842,0-1,0.4477158-1,1v8
	C80,92.5522842,80.4477158,93,81,93z"/>
<path class="st0" d="M81,109h14c0.5522842,0,1-0.4477158,1-1v-8c0-0.5522842-0.4477158-1-1-1H81c-0.5522842,0-1,0.4477158-1,1v8
	C80,108.5522842,80.4477158,109,81,109z"/>
<path class="st0" d="M81,125h14c0.5522842,0,1-0.4477158,1-1v-8c0-0.5522842-0.4477158-1-1-1H81c-0.5522842,0-1,0.4477158-1,1v8
	C80,124.5522842,80.4477158,125,81,125z"/>
<path class="st2" d="M80,85v-1c0-0.5522842,0.4477158-1,1-1h1l14,8v1c0,0.5522842-0.4477158,1-1,1h-1L80,85z"/>
<path class="st0" d="M127,93h-14c-0.5522842,0-1-0.4477158-1-1v-8c0-0.5522842,0.4477158-1,1-1h14c0.5522842,0,1,0.4477158,1,1v8
	C128,92.5522842,127.5522842,93,127,93z"/>
<path class="st2" d="M128,85v-1c0-0.5522842-0.4477158-1-1-1h-1l-14,8v1c0,0.5522842,0.4477158,1,1,1h1L128,85z"/>
<path class="st2" d="M176.3774414,60.7640991L184,56l-7.6225586-4.7640991C176.1524658,51.4192505,176,51.6871338,176,52v8
	C176,60.3128662,176.1524658,60.5807495,176.3774414,60.7640991z"/>
<path class="st2" d="M191.6225586,60.7640991L184,56l7.6225586-4.7640991C191.8475342,51.4192505,192,51.6871338,192,52v8
	C192,60.3128662,191.8475342,60.5807495,191.6225586,60.7640991z"/>
<path class="st0" d="M223,77h-14c-0.5522919,0-1-0.4477158-1-1v-8c0-0.5522842,0.4477081-1,1-1h14c0.5522919,0,1,0.4477158,1,1v8
	C224,76.5522842,223.5522919,77,223,77z"/>
<path class="st2" d="M208.3774414,76.7640991L216,72l-7.6225586-4.7640991C208.1524658,67.4192505,208,67.6871338,208,68v8
	C208,76.3128662,208.1524658,76.5807495,208.3774414,76.7640991z"/>
<path class="st0" d="M31.0000019,109H16.9999981C16.4477139,109,16,108.5522842,16,108v-8c0-0.5522842,0.4477139-1,0.9999981-1
	h14.0000038C31.5522861,99,32,99.4477158,32,100v8C32,108.5522842,31.5522861,109,31.0000019,109z"/>
<path class="st0" d="M31.0000019,125H16.9999981C16.4477139,125,16,124.5522842,16,124v-8c0-0.5522842,0.4477139-1,0.9999981-1
	h14.0000038C31.5522861,115,32,115.4477158,32,116v8C32,124.5522842,31.5522861,125,31.0000019,125z"/>
<linearGradient id="SVGID_00000136387366061027821020000006750357327345395096_" gradientUnits="userSpaceOnUse" x1="16" y1="120" x2="32" y2="120">
	<stop  offset="0" style="stop-color:#FFFFFF;stop-opacity:0"/>
	<stop  offset="0.9999999" style="stop-color:#FFD43B"/>
</linearGradient>
<path style="fill:url(#SVGID_00000136387366061027821020000006750357327345395096_);" d="M31.0000019,125H16.9999981
	C16.4477139,125,16,124.5522842,16,124v-8c0-0.5522842,0.4477139-1,0.9999981-1h14.0000038C31.5522861,115,32,115.4477158,32,116v8
	C32,124.5522842,31.5522861,125,31.0000019,125z"/>
<path class="st0" d="M48.9999962,125h14.0000076C63.5522842,125,64,124.5522842,64,124v-8c0-0.5522842-0.4477158-1-0.9999962-1
	H48.9999962C48.4477158,115,48,115.4477158,48,116v8C48,124.5522842,48.4477158,125,48.9999962,125z"/>
<linearGradient id="SVGID_00000109025915879558508910000016537520112735674278_" gradientUnits="userSpaceOnUse" x1="48" y1="120" x2="64" y2="120" gradientTransform="matrix(-1 0 0 1 112 0)">
	<stop  offset="0" style="stop-color:#FFFFFF;stop-opacity:0"/>
	<stop  offset="0.9999999" style="stop-color:#FFD43B"/>
</linearGradient>
<path style="fill:url(#SVGID_00000109025915879558508910000016537520112735674278_);" d="M48.9999962,125h14.0000076
	C63.5522842,125,64,124.5522842,64,124v-8c0-0.5522842-0.4477158-1-0.9999962-1H48.9999962C48.4477158,115,48,115.4477158,48,116v8
	C48,124.5522842,48.4477158,125,48.9999962,125z"/>
<path class="st2" d="M16.3774414,108.7640991L32,104l-15.6225586-4.7640991C16.1524658,99.4192505,16,99.6871338,16,100v8
	C16,108.3128662,16.1524658,108.5807495,16.3774414,108.7640991z"/>
<path class="st0" d="M63.0000038,109H48.9999962C48.4477158,109,48,108.5522842,48,108v-8c0-0.5522842,0.4477158-1,0.9999962-1
	h14.0000076C63.5522842,99,64,99.4477158,64,100v8C64,108.5522842,63.5522842,109,63.0000038,109z"/>
<path class="st2" d="M63.6225586,108.7640991L48,104l15.6225586-4.7640991C63.8475342,99.4192505,64,99.6871338,64,100v8
	C64,108.3128662,63.8475342,108.5807495,63.6225586,108.7640991z"/>
<path class="st0" d="M223,94h-14c-0.5522919,0-1-0.4477158-1-1v-8c0-0.5522842,0.4477081-1,1-1h14c0.5522919,0,1,0.4477158,1,1v8
	C224,93.5522842,223.5522919,94,223,94z"/>
<path class="st2" d="M223.6225586,93.7640991L216,89l7.6225586-4.7640991C223.8475342,84.4192505,224,84.6871338,224,85v8
	C224,93.3128662,223.8475342,93.5807495,223.6225586,93.7640991z"/>
<polygon class="st2" points="144,71 151,71 151,67 153,67 153,71 160,71 160,73 153,73 153,77 151,77 151,73 144,73 "/>
<path class="st0" d="M191,93h-14c-0.5522919,0-1-0.4477158-1-1v-8c0-0.5522842,0.4477081-1,1-1h14c0.5522919,0,1,0.4477158,1,1v8
	C192,92.5522842,191.5522919,93,191,93z"/>
<path class="st2" d="M181.5,87h1.5v-1.5c0-0.2761459,0.2238617-0.5,0.5-0.5h1c0.2761383,0,0.5,0.2238541,0.5,0.5V87h1.5
	c0.2761383,0,0.5,0.2238541,0.5,0.5v1c0,0.2761459-0.2238617,0.5-0.5,0.5H185v1.5c0,0.2761459-0.2238617,0.5-0.5,0.5h-1
	c-0.2761383,0-0.5-0.2238541-0.5-0.5V89h-1.5c-0.2761383,0-0.5-0.2238541-0.5-0.5v-1C181,87.2238541,181.2238617,87,181.5,87z"/>
<path class="st0" d="M223,61h-14c-0.5522919,0-1-0.4477158-1-0.9999962v-8.0000076C208,51.4477158,208.4477081,51,209,51h14
	c0.5522919,0,1,0.4477158,1,0.9999962v8.0000076C224,60.5522842,223.5522919,61,223,61z"/>
<path class="st2" d="M177.6868286,67H177c-0.5523071,0-1,0.4476929-1,1v0.3158569L190.3131714,77H191c0.5523071,0,1-0.4477539,1-1
	v-0.3158569L177.6868286,67z"/>
<path class="st2" d="M190.3131714,67H191c0.5523071,0,1,0.4476929,1,1v0.3158569L177.6868286,77H177c-0.5523071,0-1-0.4477539-1-1
	v-0.3158569L190.3131714,67z"/>
<path class="st0" d="M159,93h-14c-0.5522919,0-1-0.4477158-1-1v-8c0-0.5522842,0.4477081-1,1-1h14c0.5522919,0,1,0.4477158,1,1v8
	C160,92.5522842,159.5522919,93,159,93z"/>
<polygon class="st2" points="144,87 148,87 148,83 150,83 150,87 160,87 160,89 150,89 150,93 148,93 148,89 144,89 "/>
<path class="st2" d="M208,51.9999962v8.0000076C208,60.5522842,208.4477081,61,209,61h14c0.5522919,0,1-0.4477158,1-0.9999962
	v-8.0000076C224,51.4477158,223.5522919,51,223,51h-14C208.4477081,51,208,51.4477158,208,51.9999962z M222,59h-12v-6h12V59z"/>
<path class="st2" d="M80.4495239,99.1873169C80.1848145,99.3671875,80,99.6558228,80,100v2.333313l3.4461441-1.4359131
	c0.2051315-0.0854721,0.2051315-0.3760681,0-0.4615402L80.4495239,99.1873169z"/>
<path class="st2" d="M80,102.3333359l3.4461517,1.4358978c0.2051315,0.0854645,0.2051315,0.3760681,0,0.4615326L80,105.6666641
	V102.3333359z"/>
<path class="st2" d="M80.4495239,108.8126831l2.9966354-1.2486038c0.2051239-0.0854645,0.2051239-0.3760681,0-0.4615326
	L80,105.666626V108C80,108.3441772,80.1848145,108.6327515,80.4495239,108.8126831z"/>
<path class="st0" d="M127,109h-14c-0.5522842,0-1-0.4477158-1-1v-8c0-0.5522842,0.4477158-1,1-1h14c0.5522842,0,1,0.4477158,1,1v8
	C128,108.5522842,127.5522842,109,127,109z"/>
<path class="st2" d="M127.5504761,99.1873169C127.8151855,99.3671875,128,99.6558228,128,100v2.333313l-3.4461441-1.4359131
	c-0.2051315-0.0854721-0.2051315-0.3760681,0-0.4615402L127.5504761,99.1873169z"/>
<path class="st2" d="M128,102.3333359l-3.4461517,1.4358978c-0.2051315,0.0854645-0.2051315,0.3760681,0,0.4615326L128,105.6666641
	V102.3333359z"/>
<path class="st2" d="M127.5504761,108.8126831l-2.9966354-1.2486038c-0.2051239-0.0854645-0.2051239-0.3760681,0-0.4615326
	L128,105.666626V108C128,108.3441772,127.8151855,108.6327515,127.5504761,108.8126831z"/>
<path class="st0" d="M159,109h-14c-0.5522919,0-1-0.4477158-1-1v-8c0-0.5522842,0.4477081-1,1-1h14c0.5522919,0,1,0.4477158,1,1v8
	C160,108.5522842,159.5522919,109,159,109z"/>
<path class="st2" d="M155.7071075,108.2928925l3.5857849-3.5857849c0.3905182-0.3905258,0.3905182-1.0236893,0-1.4142151
	l-3.5857849-3.5857849c-0.3905182-0.3905258-1.0236969-0.3905258-1.4142151,0l-1.5857849,1.5857849
	c-0.3905182,0.3905258-1.0236969,0.3905258-1.4142151,0l-1.5857849-1.5857849c-0.3905182-0.3905258-1.0236969-0.3905258-1.4142151,0
	l-3.5857849,3.5857849c-0.3905182,0.3905258-0.3905182,1.0236893,0,1.4142151l3.5857849,3.5857849
	c0.3905182,0.3905258,1.0236969,0.3905258,1.4142151,0l1.5857849-1.5857849c0.3905182-0.3905258,1.0236969-0.3905258,1.4142151,0
	l1.5857849,1.5857849C154.6834106,108.6834183,155.3165894,108.6834183,155.7071075,108.2928925z"/>
<path class="st0" d="M191,109h-14c-0.5522919,0-1-0.4477158-1-1v-8c0-0.5522842,0.4477081-1,1-1h14c0.5522919,0,1,0.4477158,1,1v8
	C192,108.5522842,191.5522919,109,191,109z"/>
<path class="st2" d="M191.5,102h-1c-0.2761383,0-0.5-0.2238541-0.5-0.5v-2c0-0.2761459,0.2238617-0.5,0.5-0.5h0.5
	c0.5522919,0,1,0.4477158,1,1v1.5C192,101.7761459,191.7761383,102,191.5,102z"/>
<path class="st2" d="M191,109h-1v-1.5c0-0.2761459,0.2238617-0.5,0.5-0.5h1c0.2761383,0,0.5,0.2238541,0.5,0.5v0.5
	C192,108.5522842,191.5522919,109,191,109z"/>
<path class="st2" d="M191.5,106h-1c-0.2761383,0-0.5-0.2238541-0.5-0.5v-2c0-0.2761459,0.2238617-0.5,0.5-0.5h1
	c0.2761383,0,0.5,0.2238541,0.5,0.5v2C192,105.7761459,191.7761383,106,191.5,106z"/>
<path class="st2" d="M188.5,103h-1c-0.2761383,0-0.5-0.2238541-0.5-0.5v-2c0-0.2761459,0.2238617-0.5,0.5-0.5h1
	c0.2761383,0,0.5,0.2238541,0.5,0.5v2C189,102.7761459,188.7761383,103,188.5,103z"/>
<path class="st2" d="M188.5,109h-1c-0.2761383,0-0.5-0.2238541-0.5-0.5l0,0c0-0.2761459,0.2238617-0.5,0.5-0.5h1
	c0.2761383,0,0.5,0.2238541,0.5,0.5l0,0C189,108.7761459,188.7761383,109,188.5,109z"/>
<path class="st2" d="M188.5,107h-1c-0.2761383,0-0.5-0.2238541-0.5-0.5v-2c0-0.2761459,0.2238617-0.5,0.5-0.5h1
	c0.2761383,0,0.5,0.2238541,0.5,0.5v2C189,106.7761459,188.7761383,107,188.5,107z"/>
<path class="st2" d="M185.5,101h-1c-0.2761383,0-0.5-0.2238541-0.5-0.5v-1c0-0.2761459,0.2238617-0.5,0.5-0.5h1
	c0.2761383,0,0.5,0.2238541,0.5,0.5v1C186,100.7761459,185.7761383,101,185.5,101z"/>
<path class="st2" d="M185.5,109h-1c-0.2761383,0-0.5-0.2238541-0.5-0.5v-2c0-0.2761459,0.2238617-0.5,0.5-0.5h1
	c0.2761383,0,0.5,0.2238541,0.5,0.5v2C186,108.7761459,185.7761383,109,185.5,109z"/>
<path class="st2" d="M185.5,105h-1c-0.2761383,0-0.5-0.2238541-0.5-0.5v-2c0-0.2761459,0.2238617-0.5,0.5-0.5h1
	c0.2761383,0,0.5,0.2238541,0.5,0.5v2C186,104.7761459,185.7761383,105,185.5,105z"/>
<path class="st2" d="M182.5,102h-1c-0.2761383,0-0.5-0.2238541-0.5-0.5v-2c0-0.2761459,0.2238617-0.5,0.5-0.5h1
	c0.2761383,0,0.5,0.2238541,0.5,0.5v2C183,101.7761459,182.7761383,102,182.5,102z"/>
<path class="st2" d="M182.5,109h-1c-0.2761383,0-0.5-0.2238541-0.5-0.5v-1c0-0.2761459,0.2238617-0.5,0.5-0.5h1
	c0.2761383,0,0.5,0.2238541,0.5,0.5v1C183,108.7761459,182.7761383,109,182.5,109z"/>
<path class="st2" d="M182.5,106h-1c-0.2761383,0-0.5-0.2238541-0.5-0.5v-2c0-0.2761459,0.2238617-0.5,0.5-0.5h1
	c0.2761383,0,0.5,0.2238541,0.5,0.5v2C183,105.7761459,182.7761383,106,182.5,106z"/>
<path class="st2" d="M179.5,103h-1c-0.2761383,0-0.5-0.2238541-0.5-0.5v-2c0-0.2761459,0.2238617-0.5,0.5-0.5h1
	c0.2761383,0,0.5,0.2238541,0.5,0.5v2C180,102.7761459,179.7761383,103,179.5,103z"/>
<path class="st2" d="M179.5,109h-1c-0.2761383,0-0.5-0.2238541-0.5-0.5l0,0c0-0.2761459,0.2238617-0.5,0.5-0.5h1
	c0.2761383,0,0.5,0.2238541,0.5,0.5l0,0C180,108.7761459,179.7761383,109,179.5,109z"/>
<path class="st2" d="M179.5,107h-1c-0.2761383,0-0.5-0.2238541-0.5-0.5v-2c0-0.2761459,0.2238617-0.5,0.5-0.5h1
	c0.2761383,0,0.5,0.2238541,0.5,0.5v2C180,106.7761459,179.7761383,107,179.5,107z"/>
<path class="st2" d="M176.6666718,101h-0.3333435C176.149231,101,176,100.8507614,176,100.6666641v-1
	C176,99.2984772,176.2984772,99,176.6666718,99l0,0C176.850769,99,177,99.1492386,177,99.3333359v1.3333282
	C177,100.8507614,176.850769,101,176.6666718,101z"/>
<path class="st2" d="M176.6666718,109L176.6666718,109C176.2984772,109,176,108.7015228,176,108.3333359v-2
	C176,106.1492386,176.149231,106,176.3333282,106h0.3333435C176.850769,106,177,106.1492386,177,106.3333359v2.3333282
	C177,108.8507614,176.850769,109,176.6666718,109z"/>
<path class="st2" d="M176.5,105L176.5,105c-0.2761383,0-0.5-0.2238541-0.5-0.5v-2c0-0.2761459,0.2238617-0.5,0.5-0.5l0,0
	c0.2761383,0,0.5,0.2238541,0.5,0.5v2C177,104.7761459,176.7761383,105,176.5,105z"/>
<circle class="st2" cx="88" cy="120" r="2"/>
<path class="st0" d="M113,125h14c0.5522842,0,1-0.4477158,1-1v-8c0-0.5522842-0.4477158-1-1-1h-14c-0.5522842,0-1,0.4477158-1,1v8
	C112,124.5522842,112.4477158,125,113,125z"/>
<circle class="st2" cx="120" cy="120" r="3"/>
<path class="st0" d="M145,125h14c0.5522919,0,1-0.4477158,1-1v-8c0-0.5522842-0.4477081-1-1-1h-14c-0.5522919,0-1,0.4477158-1,1v8
	C144,124.5522842,144.4477081,125,145,125z"/>
<path class="st2" d="M151.7763977,118.1118011l-2.8819733,1.4409866c-0.368515,0.1842575-0.368515,0.7101669,0,0.8944244
	l2.8819733,1.4409866c0.1407623,0.0703812,0.3064423,0.0703812,0.4472046,0l2.8819733-1.4409866
	c0.368515-0.1842575,0.368515-0.7101669,0-0.8944244l-2.8819733-1.4409866
	C152.08284,118.04142,151.91716,118.04142,151.7763977,118.1118011z"/>
<path class="st0" d="M176,115.9048843v8.6294479C176,124.7915115,176.2084808,125,176.4656677,125h6.4101105
	c0.414856,0,0.6226349-0.5015945,0.3292694-0.7949448l-4.1825256-4.1825256
	C179.0142212,120.0142136,179.0200958,120,179.0318604,120h2.5150299c0.4530182,0,0.6393127-0.5812912,0.2706604-0.8446045
	l-5.0812225-3.6294403C176.4281158,115.3058014,176,115.526123,176,115.9048843z"/>
<path class="st0" d="M220,125h-8c-0.5522919,0-1-0.4477158-1-1v-8c0-0.5522842,0.4477081-1,1-1h8c0.5522919,0,1,0.4477158,1,1v8
	C221,124.5522842,220.5522919,125,220,125z"/>
<path class="st2" d="M213.5,119h1.5v-1.5c0-0.2761459,0.2238617-0.5,0.5-0.5h1c0.2761383,0,0.5,0.2238541,0.5,0.5v1.5h1.5
	c0.2761383,0,0.5,0.2238541,0.5,0.5v1c0,0.2761459-0.2238617,0.5-0.5,0.5H217v1.5c0,0.2761459-0.2238617,0.5-0.5,0.5h-1
	c-0.2761383,0-0.5-0.2238541-0.5-0.5V121h-1.5c-0.2761383,0-0.5-0.2238541-0.5-0.5v-1C213,119.2238541,213.2238617,119,213.5,119z"
	/>
<path class="st2" d="M21.0000134,136.2864838l1.5256462-4.5770111c0.151947-0.4558563,0.7967339-0.4558563,0.9486809,0
	l1.5256462,4.5770111"/>
<path class="st2" d="M24.6180229,137.4620667l-3.9245319,2.8061066c-0.3908672,0.27948-0.9125099-0.0995178-0.7675018-0.5576172
	l1.4559879-4.5996552"/>
<path class="st2" d="M24.6180229,135.1109009l1.4559879,4.5996552c0.1450081,0.4580994-0.3766346,0.8370972-0.7675018,0.5576172
	l-3.9245319-2.8061066"/>
<path class="st2" d="M22.3819695,134.3843536l4.8243999,0.0366211c0.4804878,0.0036469,0.6797371,0.6168671,0.2931595,0.9022522
	l-3.8814983,2.865387"/>
<path class="st2" d="M22.3819695,138.1886139l-3.8814983-2.865387c-0.3865776-0.2853851-0.1873283-0.8986053,0.2931595-0.9022522
	l4.8243999-0.0366211"/>
<circle class="st8" cx="51" cy="133.5" r="2"/>
<path class="st3" d="M50.3333397,133.5954895l0.5085449-1.5256653c0.0506516-0.151947,0.2655792-0.151947,0.3162308,0
	l0.5085449,1.5256653"/>
<path class="st3" d="M51.539341,133.9873505l-1.3081779,0.935379c-0.1302872,0.0931549-0.3041687-0.0331726-0.2558327-0.1858826
	l0.4853287-1.5332184"/>
<path class="st3" d="M51.539341,133.2036285l0.4853287,1.5332184c0.048336,0.15271-0.1255455,0.2790375-0.2558327,0.1858826
	l-1.3081779-0.935379"/>
<path class="st3" d="M50.7939911,132.9614563l1.6081314,0.012207c0.1601639,0.0012054,0.2265816,0.2056122,0.0977211,0.3007507
	l-1.2938347,0.9551239"/>
<path class="st3" d="M50.7939911,134.229538l-1.2938347-0.9551239c-0.1288605-0.0951385-0.0624428-0.2995453,0.0977211-0.3007507
	l1.6081314-0.012207"/>
</svg>
